<?xml version="1.0" standalone="no"?>
<!DOCTYPE svg PUBLIC "-//W3C//DTD SVG 20010904//EN"
 "http://www.w3.org/TR/2001/REC-SVG-20010904/DTD/svg10.dtd">
<svg version="1.0" xmlns="http://www.w3.org/2000/svg"
 width="450.000000pt" height="450.000000pt" viewBox="0 0 450.000000 450.000000"
 preserveAspectRatio="xMidYMid meet">
<metadata>
Created by potrace 1.11, written by Peter Selinger 2001-2013
</metadata>
<g transform="translate(0.000000,450.000000) scale(0.100000,-0.100000)"
fill="#000000" stroke="none">
<path d="M2210 4243 c-14 -2 -32 -7 -40 -10 -17 -7 -27 -10 -39 -12 -5 0 -14
-14 -21 -31 -7 -16 -18 -31 -24 -32 -14 -1 -29 -5 -36 -8 -5 -2 -24 -4 -170
-14 -47 -4 -101 -9 -120 -12 -19 -3 -46 -5 -60 -5 -13 1 -49 -6 -80 -15 -30
-9 -66 -18 -79 -21 -14 -2 -29 -7 -35 -11 -6 -3 -20 -8 -31 -9 -10 -2 -22 -7
-25 -11 -3 -4 -12 -7 -20 -7 -8 1 -31 -5 -49 -13 -19 -8 -44 -16 -55 -18 -11
-2 -38 -12 -60 -22 -23 -10 -81 -32 -131 -47 -49 -16 -93 -33 -96 -38 -3 -5
-8 -8 -10 -6 -2 1 -22 -6 -44 -15 -22 -10 -55 -24 -72 -32 -18 -7 -33 -17 -33
-22 0 -5 -6 -9 -14 -9 -21 0 -149 -104 -196 -160 -38 -46 -113 -169 -111 -183
1 -5 -16 -63 -26 -90 -3 -8 -8 -24 -10 -35 -2 -10 -7 -22 -11 -25 -4 -3 -19
-33 -32 -67 -14 -35 -28 -63 -33 -63 -4 0 -5 -5 -2 -10 4 -6 2 -16 -3 -23 -15
-18 -75 -179 -87 -234 -2 -10 -9 -34 -15 -53 -6 -19 -27 -96 -46 -170 -19 -74
-37 -143 -39 -152 -3 -10 -7 -26 -9 -35 -2 -10 -9 -30 -15 -45 -6 -16 -8 -28
-5 -28 4 0 2 -6 -3 -12 -10 -12 -23 -55 -28 -88 -1 -8 -12 -49 -23 -90 -12
-41 -23 -86 -26 -100 -2 -14 -9 -45 -16 -70 -19 -70 -21 -81 -22 -140 -2 -75
18 -109 81 -140 28 -14 51 -28 51 -32 0 -5 6 -8 13 -8 7 0 28 -11 47 -25 19
-14 30 -25 26 -25 -4 0 -1 -7 8 -15 14 -15 15 -40 1 -105 -25 -120 -39 -272
-37 -425 1 -136 7 -190 32 -281 35 -128 129 -258 223 -309 20 -11 37 -23 37
-27 0 -5 9 -8 19 -8 11 0 23 -4 26 -10 3 -5 17 -10 30 -10 13 0 26 -4 29 -9 3
-4 19 -11 36 -14 16 -4 33 -7 38 -8 4 -1 27 -7 52 -15 41 -11 78 -19 135 -28
11 -1 30 -8 43 -15 15 -8 22 -8 22 -1 0 6 5 8 13 3 6 -4 23 -8 37 -9 14 -1 25
-2 25 -4 0 -1 16 -4 35 -6 19 -2 51 -6 70 -9 19 -3 44 -7 55 -9 12 -1 26 -6
33 -10 7 -4 12 -2 12 4 0 6 5 8 11 5 6 -4 38 -9 72 -12 61 -4 107 -9 117 -13
14 -5 101 -1 111 6 8 4 9 3 5 -4 -5 -9 0 -9 17 -3 14 6 28 7 31 3 4 -3 26 -7
49 -8 64 -4 103 -10 116 -18 6 -4 11 -2 11 4 0 6 5 8 11 4 16 -9 169 -11 169
-1 0 5 5 5 11 1 23 -14 117 -16 599 -17 472 0 586 3 609 18 6 3 11 2 11 -2 0
-5 11 -9 25 -9 14 0 25 2 25 5 0 4 19 7 43 8 23 1 60 5 82 8 22 3 54 7 70 9
17 2 42 7 58 10 34 8 70 15 100 20 35 7 56 14 152 57 28 12 56 23 62 25 7 1
19 8 27 16 7 7 27 22 42 33 41 28 114 102 116 117 5 48 20 88 31 88 6 0 8 3 4
6 -3 4 0 19 8 34 19 36 53 161 61 225 3 28 8 59 10 70 6 32 16 257 19 435 1
91 3 168 4 172 2 12 45 54 74 73 15 9 27 23 27 30 0 7 3 15 8 17 4 2 17 17 29
34 23 33 23 47 2 152 -6 31 -12 66 -14 77 -2 11 -4 22 -5 25 -1 3 -3 10 -4 15
-1 6 -5 26 -9 45 -4 19 -9 46 -11 60 -2 14 -9 45 -15 70 -5 25 -12 59 -15 75
-3 17 -8 41 -11 55 -9 36 -13 60 -19 105 -3 22 -11 58 -16 80 -6 22 -13 51
-15 65 -10 64 -81 273 -131 385 -10 22 -18 42 -19 45 0 3 -22 49 -48 102 -26
54 -47 102 -47 108 0 5 -4 10 -10 10 -5 0 -10 6 -10 14 0 16 -35 81 -58 109
-19 21 -38 53 -54 90 -7 15 -16 27 -20 27 -4 0 -8 5 -8 11 0 17 -58 97 -100
137 -47 44 -49 46 -125 102 -33 25 -62 47 -65 50 -28 28 -171 100 -250 125
-47 15 -92 30 -100 33 -22 7 -32 10 -58 16 -12 3 -26 7 -30 10 -8 4 -41 13
-82 20 -8 2 -23 6 -32 10 -9 4 -21 5 -27 2 -5 -3 -11 -2 -13 3 -1 5 -25 11
-53 15 -81 9 -138 16 -170 21 -34 6 -183 18 -232 19 -18 0 -33 4 -33 8 0 5 -6
8 -14 8 -8 0 -17 14 -21 30 -4 17 -13 30 -21 30 -8 0 -14 4 -14 10 0 8 -23 14
-95 24 -11 2 -31 1 -45 -1z"/>
</g>
</svg>
